<svg 
 xmlns="http://www.w3.org/2000/svg"
 xmlns:xlink="http://www.w3.org/1999/xlink"
 width="19px" height="16px">
<path fill-rule="evenodd"  fill="rgb(255, 255, 255)"
 d="M18.093,2.563 C17.427,2.858 16.712,3.057 15.961,3.148 C16.727,2.688 17.316,1.961 17.593,1.093 C16.875,1.519 16.081,1.828 15.236,1.994 C14.559,1.273 13.594,0.822 12.526,0.822 C10.476,0.822 8.814,2.484 8.814,4.535 C8.814,4.826 8.847,5.109 8.910,5.381 C5.825,5.226 3.090,3.748 1.259,1.501 C0.940,2.050 0.757,2.687 0.757,3.369 C0.757,4.656 1.412,5.792 2.408,6.458 C1.800,6.439 1.227,6.272 0.727,5.993 C0.727,6.009 0.727,6.025 0.727,6.042 C0.727,7.839 2.006,9.340 3.704,9.682 C3.393,9.765 3.065,9.812 2.726,9.812 C2.487,9.812 2.254,9.790 2.028,9.745 C2.500,11.221 3.871,12.294 5.495,12.323 C4.225,13.320 2.625,13.913 0.885,13.913 C0.585,13.913 0.290,13.896 -0.000,13.861 C1.643,14.914 3.594,15.529 5.690,15.529 C12.517,15.529 16.251,9.872 16.251,4.966 C16.251,4.804 16.248,4.644 16.241,4.484 C16.966,3.961 17.595,3.308 18.093,2.563 Z"/>
</svg>