<svg 
 xmlns="http://www.w3.org/2000/svg"
 xmlns:xlink="http://www.w3.org/1999/xlink"
 width="21px" height="21px">
<path fill-rule="evenodd"  fill="rgb(255, 255, 255)"
 d="M18.539,20.999 L2.461,20.999 C1.102,20.999 0.000,19.898 0.000,18.539 L0.000,2.461 C0.000,1.101 1.102,-0.001 2.461,-0.001 L18.539,-0.001 C19.898,-0.001 21.000,1.101 21.000,2.461 L21.000,18.539 C21.000,19.898 19.898,20.999 18.539,20.999 ZM3.825,8.603 L1.913,8.603 L1.913,18.865 C1.913,18.987 2.011,19.087 2.131,19.087 L18.869,19.087 C18.989,19.087 19.087,18.987 19.087,18.865 L19.087,8.603 L17.175,8.603 C17.313,9.157 17.387,9.737 17.387,10.336 C17.387,14.211 14.303,17.354 10.500,17.354 C6.696,17.354 3.613,14.211 3.613,10.336 C3.613,9.737 3.687,9.157 3.825,8.603 ZM10.500,6.439 C8.257,6.439 6.439,8.257 6.439,10.500 C6.439,12.742 8.257,14.560 10.500,14.560 C12.743,14.560 14.561,12.742 14.561,10.500 C14.561,8.257 12.743,6.439 10.500,6.439 ZM19.082,2.854 C19.082,2.325 18.656,1.896 18.131,1.896 L15.277,1.896 C14.751,1.896 14.325,2.325 14.325,2.854 L14.325,5.726 C14.325,6.256 14.751,6.684 15.277,6.684 L18.131,6.684 C18.656,6.684 19.082,6.256 19.082,5.726 L19.082,2.854 Z"/>
</svg>