<svg 
 xmlns="http://www.w3.org/2000/svg"
 xmlns:xlink="http://www.w3.org/1999/xlink"
 width="24px" height="24px">
<path fill-rule="evenodd"  opacity="0.702" fill="rgb(20, 20, 20)"
 d="M23.534,21.064 L21.311,23.285 C20.084,24.512 18.619,23.922 16.867,23.285 C16.867,23.285 11.660,20.230 7.710,16.281 C3.512,12.084 0.757,7.180 0.757,7.180 C-0.076,5.560 -0.470,3.963 0.757,2.737 L2.980,0.516 C3.593,-0.098 4.687,-0.229 5.202,0.516 L8.535,4.958 C9.044,5.711 9.148,6.566 8.535,7.180 L8.535,7.180 L8.535,7.180 L7.220,8.494 C8.370,10.035 9.772,11.749 11.312,13.289 C12.675,14.651 14.152,15.861 15.507,16.870 L16.867,15.510 C17.481,14.897 18.337,15.001 19.089,15.510 L23.534,18.842 C24.147,19.455 24.147,20.450 23.534,21.063 M15.688,18.910 L17.473,17.125 C17.864,16.735 18.408,16.802 18.887,17.125 L21.715,19.246 C22.237,19.636 22.106,20.270 21.715,20.660 L20.302,22.073 C19.779,22.627 18.563,22.467 17.978,22.175 C15.478,20.863 11.629,17.949 9.090,15.510 C6.039,12.698 1.869,6.069 1.869,6.069 C1.600,5.557 1.579,4.137 1.970,3.746 L3.384,2.333 C3.873,2.041 4.440,1.910 4.798,2.333 L6.919,5.160 C7.243,5.639 7.309,6.183 6.919,6.573 L5.176,8.316 C5.466,8.726 9.767,15.269 15.688,18.910 Z"/>
</svg>