<svg 
 xmlns="http://www.w3.org/2000/svg"
 xmlns:xlink="http://www.w3.org/1999/xlink"
 width="19px" height="25px">
<path fill-rule="evenodd"  opacity="0.702" fill="rgb(20, 20, 20)"
 d="M9.500,25.000 C7.921,25.008 0.000,13.295 0.000,9.375 C0.000,4.198 4.253,-0.000 9.500,-0.000 C14.747,-0.000 19.000,4.198 19.000,9.375 C19.000,13.242 11.055,25.008 9.500,25.000 ZM9.500,1.563 C5.128,1.563 1.583,5.060 1.583,9.375 C1.583,12.641 8.184,22.663 9.500,22.657 C10.796,22.663 17.417,12.597 17.417,9.375 C17.417,5.060 13.872,1.563 9.500,1.563 ZM9.500,13.281 C7.314,13.281 5.542,11.533 5.542,9.375 C5.542,7.218 7.314,5.469 9.500,5.469 C11.686,5.469 13.458,7.218 13.458,9.375 C13.458,11.533 11.686,13.281 9.500,13.281 ZM9.500,7.032 C8.188,7.032 7.125,8.080 7.125,9.375 C7.125,10.669 8.188,11.719 9.500,11.719 C10.812,11.719 11.875,10.669 11.875,9.375 C11.875,8.080 10.812,7.032 9.500,7.032 Z"/>
</svg>