<svg 
 xmlns="http://www.w3.org/2000/svg"
 xmlns:xlink="http://www.w3.org/1999/xlink"
 width="24px" height="19px">
<path fill-rule="evenodd"  opacity="0.702" fill="rgb(20, 20, 20)"
 d="M21.000,19.001 L3.000,19.001 C1.343,19.001 0.000,17.692 0.000,16.077 L0.000,2.923 C0.000,1.308 1.343,0.000 3.000,0.000 L21.000,0.000 C22.657,0.000 24.000,1.308 24.000,2.923 L24.000,16.077 C24.000,17.692 22.657,19.001 21.000,19.001 ZM3.750,1.461 L12.000,8.450 L20.250,1.461 L3.750,1.461 ZM22.500,2.923 C22.500,2.503 22.315,2.126 22.023,1.860 L12.000,10.231 L1.977,1.860 C1.685,2.126 1.500,2.503 1.500,2.923 L1.500,16.077 C1.500,16.885 2.172,17.539 3.000,17.539 L21.000,17.539 C21.828,17.539 22.500,16.885 22.500,16.077 L22.500,2.923 Z"/>
</svg>