<svg 
 xmlns="http://www.w3.org/2000/svg"
 xmlns:xlink="http://www.w3.org/1999/xlink"
 width="40px" height="37px">
<path fill-rule="evenodd"  fill="rgb(37, 34, 32)"
 d="M18.384,26.564 L18.254,26.434 L18.136,26.552 L7.586,16.000 L9.000,14.587 L18.266,23.852 L38.381,3.739 L39.795,5.152 L18.384,26.564 ZM34.000,2.002 L2.000,2.002 L2.000,35.000 L34.000,35.000 L34.000,14.001 L36.000,14.001 L36.000,35.000 L36.000,37.000 L34.000,37.000 L2.000,37.000 L0.000,37.000 L0.000,35.000 L0.000,2.002 L0.000,-0.001 L2.000,-0.001 L34.000,-0.001 L36.000,-0.001 L36.000,2.002 L36.000,3.000 L34.000,3.000 L34.000,2.002 Z"/>
</svg>